===========Visit DUSTorrents.com for more Exclusives==============

Visit DusTorrents.com for more exclusives....

DusTorrents.com a Complete FreeLeech Site!! Registrations are absolutely FREE!!

Register by visiting..... www.dustorrents.com

========================================================

[CENTER][B][FONT=Comic Sans MS][SIZE=5][COLOR=#FF0000]Ghayal (1990) 1/3 DvD RiP XviD 5.1 AC3 [Team DUS][/COLOR][/SIZE][/FONT][/B]

[IMG]http://img197.imageshack.us/img197/150/65883099.png[/IMG]

[img]http://www.jointscene.com/ahtees/admin/movies/content/1310_17_Ghayal%20%281990%29.jpg[/img]
[/CENTER]

[CODE]
[B][FONT=Comic Sans MS][COLOR=#FF0000]Source                           : DvD 9 @ DUS WareHouse!!!!
Ripper                           : I Proud To Be An Indian [Team DUS][/COLOR][/FONT][/B]
General
Complete name                    : D:\Download\Ghayal (1990) DvD RiP XviD 5.1 AC3 [Team DUS]\Ghayal (1990) DvD RiP XviD 5.1 AC3 [Team DUS].avi
Format                           : AVI
Format/Info                      : Audio Video Interleave
File size                        : 1.45 GiB
Duration                         : 2h 36mn
Overall bit rate                 : 1 327 Kbps

Video
ID                               : 0
Format                           : MPEG-4 Visual
Format profile                   : Advanced Simple@L5
Format settings, BVOP            : 2
Format settings, QPel            : Yes
Format settings, GMC             : No warppoints
Format settings, Matrix          : Default (H.263)
Codec ID                         : XVID
Codec ID/Hint                    : XviD
Duration                         : 2h 36mn
Bit rate                         : 870 Kbps
Width                            : 720 pixels
Height                           : 384 pixels
Display aspect ratio             : 1.875
Frame rate                       : 29.970 fps
Color space                      : YUV
Chroma subsampling               : 4:2:0
Bit depth                        : 8 bits
Scan type                        : Progressive
Compression mode                 : Lossy
Bits/(Pixel*Frame)               : 0.105
Stream size                      : 975 MiB (66%)
Writing library                  : XviD 1.2.1 (UTC 2008-12-04)

Audio
ID                               : 1
Format                           : AC-3
Format/Info                      : Audio Coding 3
Mode extension                   : CM (complete main)
Codec ID                         : 2000
Duration                         : 2h 36mn
Bit rate mode                    : Constant
Bit rate                         : 448 Kbps
Channel(s)                       : 6 channels
Channel positions                : Front: L C R, Side: L R, LFE
Sampling rate                    : 48.0 KHz
Bit depth                        : 16 bits
Compression mode                 : Lossy
Stream size                      : 502 MiB (34%)
Alignment                        : Aligned on interleaves
Interleave, duration             : 64 ms (1.92 video frames)
Interleave, preload duration     : 192 ms
Title                            : VTS_01_1 T80 3_2ch 448Kbps DELAY -49ms[/CODE]

[CENTER][IMG]http://img21.imageshack.us/img21/3431/5vh6rom324kkccccthg.gif[/IMG]

[IMG]http://img33.imageshack.us/img33/1636/vlcsnap2011082817h52m36.png[/IMG]

[IMG]http://img221.imageshack.us/img221/3427/vlcsnap2011082817h53m33m.png[/IMG]

[IMG]http://img691.imageshack.us/img691/4426/vlcsnap2011082817h54m17.png[/IMG]

[IMG]http://img716.imageshack.us/img716/8528/vlcsnap2011082817h54m32.png[/IMG]

[IMG]http://img38.imageshack.us/img38/310/vlcsnap2011082817h54m41.png[/IMG]

[IMG]http://img64.imageshack.us/img64/2182/vlcsnap2011082817h55m11.png[/IMG]

[IMG]http://img689.imageshack.us/img689/7709/vlcsnap2011082817h56m42.png[/IMG]

[IMG]http://img6.imageshack.us/img6/5610/vlcsnap2011082817h56m50.png[/IMG]

[IMG]http://img827.imageshack.us/img827/7007/vlcsnap2011082817h57m11.png[/IMG]

[IMG]http://img838.imageshack.us/img838/7810/vlcsnap2011082817h57m37.png[/IMG]

:gitar::gitar::gitar::gitar:[/CENTER]